<svg width="167" height="37" viewBox="0 0 167 37" fill="none" xmlns="http://www.w3.org/2000/svg">
<mask id="path-1-outside-1_2758_1779" maskUnits="userSpaceOnUse" x="0" y="0" width="167" height="37" fill="black">
<rect fill="white" width="167" height="37"/>
<path d="M166 21C166 29.2843 159.284 36 151 36L16 36C7.71573 36 1 29.2843 1 21V16C1 7.71573 7.71573 1 16 1L151 1C159.284 1 166 7.71573 166 16V21Z"/>
</mask>
<path d="M166 21C166 29.2843 159.284 36 151 36L16 36C7.71573 36 1 29.2843 1 21V16C1 7.71573 7.71573 1 16 1L151 1C159.284 1 166 7.71573 166 16V21Z" fill="white"/>
<path d="M151 36V37V36ZM1 21H0H1ZM16 1V0V1ZM166 16H167H166ZM166 21H165C165 28.732 158.732 35 151 35V36V37C159.837 37 167 29.8366 167 21H166ZM151 36V35L16 35V36V37L151 37V36ZM16 36V35C8.26802 35 2 28.732 2 21H1H0C0 29.8366 7.16344 37 16 37V36ZM1 21H2V16H1H0V21H1ZM1 16H2C2 8.26801 8.26802 2 16 2V1V0C7.16344 2.38419e-07 0 7.16344 0 16H1ZM16 1V2L151 2V1V0L16 0V1ZM151 1V2C158.732 2 165 8.26801 165 16H166H167C167 7.16344 159.837 0 151 0V1ZM166 16H165V21H166H167V16H166Z" fill="white" mask="url(#path-1-outside-1_2758_1779)"/>
</svg>
