<svg width="50" height="50" viewBox="0 0 50 50" fill="none" xmlns="http://www.w3.org/2000/svg">
<path d="M0 25C0 31.6304 2.63392 37.9893 7.32233 42.6777C12.0107 47.3661 18.3696 50 25 50C31.6304 50 37.9893 47.3661 42.6777 42.6777C47.3661 37.9893 50 31.6304 50 25C50 18.3696 47.3661 12.0107 42.6777 7.32233C37.9893 2.63392 31.6304 0 25 0C18.3696 0 12.0107 2.63392 7.32233 7.32233C2.63392 12.0107 0 18.3696 0 25ZM38.6035 26.1035L27.666 37.041C27.2168 37.4902 26.543 37.6172 25.9668 37.3828C25.3906 37.1484 25 36.5723 25 35.9375V29.6875H15.625C13.8965 29.6875 12.5 28.291 12.5 26.5625V23.4375C12.5 21.709 13.8965 20.3125 15.625 20.3125H25V14.0625C25 13.4277 25.3809 12.8613 25.9668 12.6172C26.5527 12.373 27.2266 12.5098 27.666 12.959L38.6035 23.8965C39.209 24.502 39.209 25.498 38.6035 26.1035Z" fill="#104771"/>
</svg>
